{"title":"The Hunger Games Catching Fire 2013 480p BRRip XviD AC3-EVO [P2P","uid":9498190,"size":2366242222,"categoryP":"video","categoryS":"movies","magnet":"?xt=urn:btih:8547d316f0d00f1cf4881b37f58dcc90a4e49b75&amp;dn=The+Hunger+Games+Catching+Fire+2013+480p+BRRip+XviD+AC3-EVO+%5BP2P&amp;tr=udp%3A%2F%2Ftracker.openbittorrent.com%3A80&amp;tr=udp%3A%2F%2Fopen.demonii.com%3A1337&amp;tr=udp%3A%2F%2Ftracker.coppersurfer.tk%3A6969&amp;tr=udp%3A%2F%2Fexodus.desync.com%3A6969","seeders":1,"leechers":0,"uploader":"ValidusVyto","files":4,"time":1390159464,"description":"The.Hunger.Games.Catching.Fire.2013.480p.BRRip.XviD.AC3-EVO\n\nInfo:\nGeneral\nComplete name                            : The.Hunger.Games.Catching.Fire.2013.480p.BRRip.XviD.AC3-EVO.[P2PDL]/The.Hunger.Games.Catching.Fire.2013.480p.BRRip.XviD.AC3-EVO/The.Hunger.Games.Catching.Fire.2013.480p.BRRip.XviD.AC3-EVO.avi\nFormat                                   : AVI\nFormat/Info                              : Audio Video Interleave\nFormat profile                           : OpenDML\nFile size                                : 2.20 GiB\nDuration                                 : 2h 26mn\nOverall bit rate                         : 2 157 Kbps\nWriting library                          : VirtualDub build 32593/release\n\nVideo\nID                                       : 0\nFormat                                   : MPEG-4 Visual\nFormat profile                           : Advanced Simple@L5\nFormat settings, BVOP                    : 2\nFormat settings, QPel                    : No\nFormat settings, GMC                     : No warppoints\nFormat settings, Matrix                  : Default (H.263)\nMuxing mode                              : Packed bitstream\nCodec ID                                 : XVID\nCodec ID/Hint                            : XviD\nDuration                                 : 2h 26mn\nBit rate                                 : 1 697 Kbps\nWidth                                    : 720 pixels\nHeight                                   : 304 pixels\nDisplay aspect ratio                     : 2.35:1\nFrame rate                               : 23.976 fps\nColor space                              : YUV\nChroma subsampling                       : 4:2:0\nBit depth                                : 8 bits\nScan type                                : Progressive\nCompression mode                         : Lossy\nBits/(Pixel*Frame)                       : 0.323\nStream size                              : 1.73 GiB (79%)\nWriting library                          : XviD 64\n\nAudio\nID                                       : 1\nFormat                                   : AC-3\nFormat/Info                              : Audio Coding 3\nMode extension                           : CM (complete main)\nCodec ID                                 : 2000\nDuration                                 : 2h 26mn\nBit rate mode                            : Constant\nBit rate                                 : 448 Kbps\nChannel(s)                               : 6 channels\nChannel positions                        : Front: L C R, Side: L R, LFE\nSampling rate                            : 48.0 KHz\nBit depth                                : 16 bits\nCompression mode                         : Lossy\nStream size                              : 469 MiB (21%)\nAlignment                                : Aligned on interleaves\nInterleave, duration                     : 42 ms (1.00 video frame)\nInterleave, preload duration             : 512 ms\n\n\n\n\nScreenshots:\nhttp://beeimg.com/images/q06346345821.jpg\nhttp://beeimg.com/images/i21769375771.jpg","torrent":{"xt":"urn:btih:8547d316f0d00f1cf4881b37f58dcc90a4e49b75","amp;dn":"The+Hunger+Games+Catching+Fire+2013+480p+BRRip+XviD+AC3-EVO+%5BP2P","amp;tr":["udp%3A%2F%2Ftracker.openbittorrent.com%3A80","udp%3A%2F%2Fopen.demonii.com%3A1337","udp%3A%2F%2Ftracker.coppersurfer.tk%3A6969","udp%3A%2F%2Fexodus.desync.com%3A6969"],"infoHash":"8547d316f0d00f1cf4881b37f58dcc90a4e49b75","infoHashBuffer":{"type":"Buffer","data":[133,71,211,22,240,208,15,28,244,136,27,55,245,141,204,144,164,228,155,117]},"announce":[],"urlList":[]}}